<svg width="123" height="123" viewBox="0 0 123 123" fill="none" xmlns="http://www.w3.org/2000/svg">
<path fill-rule="evenodd" clip-rule="evenodd" d="M17.3273 16.4339C21.3572 16.4615 25.2871 18.7688 29.6807 22.518L43.4151 1.00803C44.0111 -0.349375 44.8409 -0.315739 45.8175 0.478548L49.6974 5.06559C50.2038 5.89782 50.4199 6.77878 50.1558 7.72763L45.5391 34.3277L69.4617 56.6127L104.718 4.98669C105.494 3.68008 106.364 3.57389 107.369 4.92831L113.296 12.4244L94.0302 79.8406L115.263 99.8738C121.023 106.589 123.585 113.1 122.333 118.085C121.641 120.832 120.817 121.798 118.233 122.637C113.166 124.265 106.377 121.675 99.4036 115.594L79.5572 94.1873L11.9747 112.861L4.53088 106.869C3.19532 105.853 3.30913 104.983 4.61249 104.219L56.5355 69.4062L34.471 45.2893L7.83154 49.6726C6.89041 49.9284 6.01134 49.7146 5.17362 49.1909L0.620759 45.2709C-0.164983 44.2975 -0.191301 43.4574 1.17127 42.8733L22.8008 29.328C19.0803 24.8816 16.8076 20.9316 16.8253 16.8817C16.8369 16.5117 16.9673 16.4323 17.3273 16.4339Z" fill="black"/>
</svg>
